name C:\Users\u0101727\Documents\MyRepositories\upper-imu-dc\Results\main_tracking\Case_32\ABD01_orientations_groundFrame.mot
datacolumns 13
datarows 36
range 6.31000000 6.66000000
endheader 
time	radius_imu_[0][0]	radius_imu_[0][1]	radius_imu_[0][2]	radius_imu_[1][0]	radius_imu_[1][1]	radius_imu_[1][2]	radius_imu_[2][0]	radius_imu_[2][1]	radius_imu_[2][2]	radius_imu_x	radius_imu_y	radius_imu_z	
          6.31000000	          0.99614935	         -0.00241251	         -0.08763937	          0.04011050	         -0.87633037	          0.48003773	         -0.07795914	         -0.48170453	         -0.87285916	         -2.63878006	         -0.08775195	          0.00242183	
          6.32000000	          0.99583457	         -0.00577234	         -0.09099554	          0.03833664	         -0.87898477	          0.47530630	         -0.08272732	         -0.47681491	         -0.87510213	         -2.64402855	         -0.09112159	          0.00579642	
          6.33000000	          0.99549842	         -0.00920696	         -0.09432988	          0.03643438	         -0.88161820	          0.47055488	         -0.08749532	         -0.47187349	         -0.87731407	         -2.64928304	         -0.09447034	          0.00924833	
          6.34000000	          0.99513815	         -0.01269179	         -0.09766767	          0.03443652	         -0.88423070	          0.46577913	         -0.09227232	         -0.46687791	         -0.87949465	         -2.65454751	         -0.09782362	          0.01275310	
          6.35000000	          0.99475320	         -0.01620199	         -0.10101268	          0.03236623	         -0.88682086	          0.46097851	         -0.09704892	         -0.46182925	         -0.88164349	         -2.65982260	         -0.10118526	          0.01628600	
          6.36000000	          0.99434568	         -0.01971426	         -0.10434565	          0.03023542	         -0.88938535	          0.45615734	         -0.10179629	         -0.45673302	         -0.88376041	         -2.66510474	         -0.10453593	          0.01982376	
          6.37000000	          0.99392005	         -0.02320775	         -0.10763050	          0.02804741	         -0.89191887	          0.45132479	         -0.10647191	         -0.45159952	         -0.88584514	         -2.67038589	         -0.10783940	          0.02334547	
          6.38000000	          0.99348193	         -0.02666386	         -0.11082734	          0.02580334	         -0.89441465	          0.44649369	         -0.11103084	         -0.44644313	         -0.88789678	         -2.67565435	         -0.11105548	          0.02683236	
          6.39000000	          0.99303624	         -0.03006521	         -0.11390832	          0.02351010	         -0.89686543	          0.44167824	         -0.11543959	         -0.44128050	         -0.88991304	         -2.68089644	         -0.11415610	          0.03026680	
          6.40000000	          0.99258549	         -0.03339446	         -0.11687107	          0.02118660	         -0.89926470	          0.43689144	         -0.11968778	         -0.43612821	         -0.89188958	         -2.68609857	         -0.11713877	          0.03363123	
          6.41000000	          0.99212869	         -0.03663365	         -0.11974404	          0.01886588	         -0.90160769	          0.43214310	         -0.12379313	         -0.43100065	         -0.89381973	         -2.69124895	         -0.12003207	          0.03690753	
          6.42000000	          0.99166151	         -0.03976446	         -0.12258159	          0.01659175	         -0.90389183	          0.42743921	         -0.12779739	         -0.42590885	         -0.89569497	         -2.69633851	         -0.12289067	          0.04007736	
          6.43000000	          0.99117763	         -0.04276906	         -0.12545007	          0.01441150	         -0.90611653	          0.42278261	         -0.13175440	         -0.42086059	         -0.89750607	         -2.70136080	         -0.12578147	          0.04312299	
          6.44000000	          0.99067079	         -0.04563128	         -0.12841019	          0.01236716	         -0.90828248	          0.41817458	         -0.13571457	         -0.41586142	         -0.89924459	         -2.70631135	         -0.12876573	          0.04602846	
          6.45000000	          0.99013677	         -0.04833758	         -0.13150156	          0.01048857	         -0.91039080	          0.41361647	         -0.13971103	         -0.41091614	         -0.90090441	         -2.71118666	         -0.13188354	          0.04878037	
          6.46000000	          0.98957469	         -0.05087742	         -0.13473460	          0.00879031	         -0.91244237	          0.40911080	         -0.14375206	         -0.40603006	         -0.90248265	         -2.71598366	         -0.13514562	          0.05136819	
          6.47000000	          0.98898724	         -0.05324286	         -0.13809210	          0.00727337	         -0.91443766	          0.40466142	         -0.14782195	         -0.40120938	         -0.90397992	         -2.72069949	         -0.13853480	          0.05378382	
          6.48000000	          0.98837976	         -0.05542768	         -0.14153877	          0.00593038	         -0.91637688	          0.40027272	         -0.15188904	         -0.39646084	         -0.90539965	         -2.72533188	         -0.14201566	          0.05602066	
          6.49000000	          0.98775872	         -0.05742623	         -0.14503430	          0.00475202	         -0.91826049	          0.39594834	         -0.15591709	         -0.39179063	         -0.90674691	         -2.72987986	         -0.14554764	          0.05807254	
          6.50000000	          0.98713019	         -0.05923292	         -0.14854447	          0.00373180	         -0.92008969	          0.39168998	         -0.15987517	         -0.38720334	         -0.90802726	         -2.73434428	         -0.14909625	          0.05993332	
          6.51000000	          0.98649893	         -0.06084255	         -0.15204621	          0.00286746	         -0.92186649	          0.38749703	         -0.16374261	         -0.38270139	         -0.90924584	         -2.73872795	         -0.15263822	          0.06159721	
          6.52000000	          0.98586829	         -0.06225145	         -0.15552643	          0.00215917	         -0.92359357	          0.38336700	         -0.16750836	         -0.37828517	         -0.91040720	         -2.74303508	         -0.15616035	          0.06306006	
          6.53000000	          0.98524073	         -0.06345902	         -0.15897689	          0.00160612	         -0.92527378	          0.37929651	         -0.17116693	         -0.37395371	         -0.91151550	         -2.74727053	         -0.15965428	          0.06432081	
          6.54000000	          0.98461850	         -0.06446898	         -0.16238889	          0.00120327	         -0.92690976	          0.37528235	         -0.17471391	         -0.36970534	         -0.91257493	         -2.75143899	         -0.16311120	          0.06538277	
          6.55000000	          0.98400400	         -0.06529016	         -0.16575076	          0.00093978	         -0.92850368	          0.37132202	         -0.17814387	         -0.36553812	         -0.91358998	         -2.75554456	         -0.16651926	          0.06625441	
          6.56000000	          0.98339955	         -0.06593665	         -0.16904934	          0.00079946	         -0.93005726	          0.36741374	         -0.18145160	         -0.36144965	         -0.91456518	         -2.75959064	         -0.16986505	          0.06694950	
          6.57000000	          0.98280669	         -0.06642732	         -0.17227429	          0.00076262	         -0.93157205	          0.36355596	         -0.18463596	         -0.35743660	         -0.91550458	         -2.76358020	         -0.17313801	          0.06748677	
          6.58000000	          0.98222528	         -0.06678513	         -0.17542304	          0.00080837	         -0.93304968	          0.35974664	         -0.18770414	         -0.35349405	         -0.91641100	         -2.76751616	         -0.17633546	          0.06788921	
          6.59000000	          0.98165294	         -0.06703613	         -0.17850395	          0.00091643	         -0.93449204	          0.35598284	         -0.19067423	         -0.34961518	         -0.91728543	         -2.77140162	         -0.17946577	          0.06818318	
          6.60000000	          0.98108494	         -0.06720842	         -0.18153611	          0.00106780	         -0.93590129	          0.35226075	         -0.19357477	         -0.34579156	         -0.91812690	         -2.77523979	         -0.18254830	          0.06839732	
          6.61000000	          0.98051475	         -0.06733102	         -0.18454634	          0.00124471	         -0.93727966	          0.34857610	         -0.19644151	         -0.34201372	         -0.91893272	         -2.77903375	         -0.18561025	          0.06856142	
          6.62000000	          0.97993495	         -0.06743263	         -0.18756421	          0.00142999	         -0.93862925	          0.34492475	         -0.19931244	         -0.33827203	         -0.91969918	         -2.78278618	         -0.18868176	          0.06870507	
          6.63000000	          0.97933829	         -0.06754049	         -0.19061687	          0.00160651	         -0.93995193	          0.34130308	         -0.20222247	         -0.33455741	         -0.92042241	         -2.78649927	         -0.19179050	          0.06885640	
          6.64000000	          0.97871870	         -0.06767931	         -0.19372462	          0.00175669	         -0.94124920	          0.33770824	         -0.20519900	         -0.33086168	         -0.92109930	         -2.79017482	         -0.19495727	          0.06904102	
          6.65000000	          0.97807189	         -0.06787066	         -0.19689831	          0.00186249	         -0.94252225	          0.33413821	         -0.20825922	         -0.32717791	         -0.92172811	         -2.79381438	         -0.19819329	          0.06928124	
          6.66000000	          0.97739563	         -0.06813261	         -0.20013929	          0.00190591	         -0.94377182	          0.33059207	         -0.21140992	         -0.32350069	         -0.92230860	         -2.79741900	         -0.20150008	          0.06959574	
